<svg xmlns="http://www.w3.org/2000/svg" version="1.1" xmlns:xlink="http://www.w3.org/1999/xlink" xmlns:svgjs="http://svgjs.dev/svgjs" width="2000" height="424" viewBox="0 0 2000 424"><g transform="matrix(1,0,0,1,-1.2121212121213603,-1.2976833156217253)"><svg viewBox="0 0 396 84" data-background-color="#97d5ee" preserveAspectRatio="xMidYMid meet" height="424" width="2000" xmlns="http://www.w3.org/2000/svg" xmlns:xlink="http://www.w3.org/1999/xlink"><g id="tight-bounds" transform="matrix(1,0,0,1,0.24000000000003752,0.2570882040382685)"><svg viewBox="0 0 395.5199999999999 83.48582359192348" height="83.48582359192348" width="395.5199999999999"><g><svg viewBox="0 0 395.52000000000004 83.48582359192349" height="83.48582359192348" width="395.5199999999999"><g><svg viewBox="0 0 395.52000000000004 83.48582359192349" height="83.48582359192349" width="395.52000000000004"><g id="textblocktransform"><svg viewBox="0 0 395.52000000000004 83.48582359192349" height="83.48582359192349" width="395.52000000000004" id="textblock"><g><svg viewBox="0 0 395.52000000000004 83.48582359192349" height="83.48582359192349" width="395.52000000000004"><g transform="matrix(1,0,0,1,0,0)"><svg width="395.52000000000004" viewBox="3.91 -38.18 183.77 38.79" height="83.48582359192349" data-palette-color="#db3e25"><path d="M22.07 0L9.94 0Q7.42 0 6.12-0.63 4.81-1.27 4.36-2.71 3.91-4.15 3.91-6.54L3.91-6.54 3.91-31.1Q3.91-31.81 4.15-32.18L4.15-32.18Q5.25-33.79 7.23-35.57L7.23-35.57Q7.59-35.86 7.86-35.86L7.86-35.86Q8.15-35.86 8.47-35.57L8.47-35.57Q9.55-34.64 10.28-33.8 11.01-32.96 11.55-32.18L11.55-32.18Q11.79-31.79 11.79-31.1L11.79-31.1 11.79-9.45Q11.79-7.81 12.38-7.1 12.96-6.4 14.58-6.4L14.58-6.4 22.07-6.42Q22.66-6.42 22.95-6.23L22.95-6.23Q23.58-5.79 24.27-5.18 24.95-4.57 25.71-3.71L25.71-3.71Q25.95-3.39 25.95-3.2L25.95-3.2Q25.95-2.98 25.71-2.71L25.71-2.71Q24.95-1.86 24.27-1.25 23.58-0.63 22.95-0.2L22.95-0.2Q22.61 0 22.07 0L22.07 0ZM27.63-33.2L27.63-33.2Q27.63-33.52 27.83-33.76 28.02-34.01 28.34-34.4L28.34-34.4Q29.03-35.18 29.93-36.05 30.83-36.91 31.76-37.72L31.76-37.72Q32.35-38.18 32.64-38.18L32.64-38.18Q32.93-38.18 33.54-37.72L33.54-37.72Q35.52-36.01 36.91-34.4L36.91-34.4Q37.23-34.03 37.44-33.78 37.64-33.52 37.64-33.2L37.64-33.2Q37.64-32.89 37.44-32.64 37.23-32.4 36.89-31.98L36.89-31.98Q36.23-31.23 35.35-30.36 34.47-29.49 33.54-28.71L33.54-28.71Q33.2-28.42 33.01-28.33 32.81-28.25 32.64-28.25L32.64-28.25Q32.47-28.25 32.29-28.33 32.1-28.42 31.71-28.71L31.71-28.71Q30.73-29.49 29.88-30.36 29.03-31.23 28.34-32.03L28.34-32.03Q28.02-32.42 27.83-32.65 27.63-32.89 27.63-33.2ZM36.47-23.71L36.47-1.29Q36.47-0.56 36.17-0.28 35.86 0 35.13 0L35.13 0 30.1 0Q29.37 0 29.06-0.28 28.76-0.56 28.76-1.29L28.76-1.29 28.76-23.71Q28.76-24.44 29.06-24.72 29.37-25 30.1-25L30.1-25 35.13-25Q35.86-25 36.17-24.72 36.47-24.44 36.47-23.71L36.47-23.71ZM53 0.61L53 0.61Q44.84 0.61 44.84-7.86L44.84-7.86 44.84-19.31 42.08-19.31Q41.35-19.31 41.07-19.62 40.79-19.92 40.79-20.65L40.79-20.65 40.79-23.66Q40.79-24.39 41.07-24.69 41.35-25 42.08-25L42.08-25 44.84-25 44.84-28.93Q44.84-29.52 45.09-29.83L45.09-29.83Q46.11-31.18 48.09-32.74L48.09-32.74Q48.43-32.98 48.7-32.98L48.7-32.98Q48.99-32.98 49.29-32.74L49.29-32.74Q50.34-31.93 51.06-31.23 51.78-30.52 52.29-29.83L52.29-29.83Q52.53-29.52 52.53-28.93L52.53-28.93 52.53-25 56.86-25Q57.59-25 57.87-24.69 58.15-24.39 58.15-23.66L58.15-23.66 58.15-20.65Q58.15-19.92 57.87-19.62 57.59-19.31 56.86-19.31L56.86-19.31 52.53-19.31 52.53-9.2Q52.53-5.3 55.37-5.3L55.37-5.3Q55.81-5.3 56.17-5.38 56.54-5.47 56.81-5.57L56.81-5.57Q57.32-5.76 57.53-5.71 57.73-5.66 57.91-5.18L57.91-5.18 59.32-1.39Q59.54-0.78 59.03-0.51L59.03-0.51Q58.66-0.34 57.26 0.13 55.85 0.61 53 0.61ZM75.65 0.61L75.65 0.61Q71.53 0.61 68.47-0.72 65.42-2.05 63.74-4.86 62.05-7.67 62.05-12.11L62.05-12.11Q62.05-18.77 65.47-22.19 68.89-25.61 74.55-25.61L74.55-25.61Q78.24-25.61 80.79-24.29 83.34-22.97 84.67-20.65 86-18.33 86-15.36L86-15.36Q86-12.45 84.51-11.3 83.02-10.16 80.17-10.16L80.17-10.16 69.69-10.16Q69.89-7.64 71.54-6.32 73.19-5 76.02-5L76.02-5Q78.26-5 79.62-5.68 80.97-6.35 81.51-6.74L81.51-6.74Q81.97-7.08 82.56-7.06L82.56-7.06Q83.02-7.06 83.89-6.87 84.76-6.69 85.61-6.2L85.61-6.2Q86.22-5.88 86.22-5.32L86.22-5.32Q86.22-5 86.1-4.42L86.1-4.42Q86.03-4.08 85.86-3.43 85.69-2.78 85.42-2.22L85.42-2.22Q85.27-1.95 84.95-1.71L84.95-1.71Q84.47-1.37 83.38-0.81 82.29-0.24 80.41 0.18 78.53 0.61 75.65 0.61ZM69.65-15.16L69.65-15.16 77.6-15.16Q78.85-15.16 78.85-16.31L78.85-16.31Q78.85-18.04 77.76-19.23 76.68-20.41 74.5-20.41L74.5-20.41Q72.14-20.41 71.03-18.9 69.91-17.38 69.65-15.16ZM107 0.61L107 0.61Q101.92 0.61 98.16-1.34 94.4-3.3 92.34-7.23 90.27-11.16 90.27-17.04L90.27-17.04Q90.27-26.39 94.84-30.99 99.4-35.6 107.56-35.6L107.56-35.6Q115.2-35.6 119.64-31.09 124.09-26.59 124.09-17.75L124.09-17.75Q124.09-11.5 122.01-7.43 119.94-3.37 116.1-1.38 112.27 0.61 107 0.61ZM107.14-5.98L107.14-5.98Q111.54-5.98 113.66-9.13 115.79-12.28 115.79-17.31L115.79-17.31Q115.79-23.14 113.78-26.07 111.78-29 107.34-29L107.34-29Q98.57-29 98.57-17.46L98.57-17.46Q98.57-12.3 100.69-9.14 102.8-5.98 107.14-5.98ZM138.07-25.56L138.07-25.56 138.07-20 146.74-20Q147.33-20 147.62-19.8L147.62-19.8Q148.25-19.36 148.94-18.75 149.62-18.14 150.38-17.29L150.38-17.29Q150.62-16.97 150.62-16.77L150.62-16.77Q150.62-16.55 150.38-16.28L150.38-16.28Q149.62-15.43 148.94-14.82 148.25-14.21 147.62-13.77L147.62-13.77Q147.28-13.57 146.74-13.57L146.74-13.57 138.07-13.57 138.07-1.29Q138.07-0.56 137.77-0.28 137.46 0 136.73 0L136.73 0 131.53 0Q130.8 0 130.49-0.28 130.19-0.56 130.19-1.29L130.19-1.29 130.19-28.47Q130.19-30.91 130.64-32.34 131.09-33.76 132.4-34.39 133.7-35.01 136.22-35.01L136.22-35.01 147.74-35.01Q148.33-35.01 148.62-34.81L148.62-34.81Q149.26-34.38 149.94-33.76 150.62-33.15 151.38-32.3L151.38-32.3Q151.62-31.98 151.62-31.79L151.62-31.79Q151.62-31.57 151.38-31.3L151.38-31.3Q150.62-30.44 149.94-29.83 149.26-29.22 148.62-28.78L148.62-28.78Q148.28-28.59 147.74-28.59L147.74-28.59 140.86-28.59Q139.25-28.59 138.66-27.91 138.07-27.22 138.07-25.56ZM170.15 0L162.66 0Q160.14 0 158.84-0.63 157.53-1.27 157.08-2.71 156.63-4.15 156.63-6.54L156.63-6.54 156.63-28.47Q156.63-30.91 157.08-32.34 157.53-33.76 158.84-34.39 160.14-35.01 162.66-35.01L162.66-35.01 170.15-35.01Q175.4-35.01 179.34-33.45 183.29-31.88 185.48-28.16 187.68-24.44 187.68-17.94L187.68-17.94Q187.68-11.45 185.48-7.51 183.29-3.56 179.34-1.78 175.4 0 170.15 0L170.15 0ZM168.37-28.59L167.29-28.59Q165.68-28.59 165.1-27.91 164.51-27.22 164.51-25.56L164.51-25.56 164.51-9.45Q164.51-7.81 165.1-7.1 165.68-6.4 167.29-6.4L167.29-6.4 168.42-6.4Q173.64-6.4 176.51-8.96 179.38-11.52 179.38-17.85L179.38-17.85Q179.38-22.07 178.07-24.4 176.77-26.73 174.3-27.66 171.84-28.59 168.37-28.59L168.37-28.59Z" opacity="1" transform="matrix(1,0,0,1,0,0)" fill="#db3e25" class="wordmark-text-0" data-fill-palette-color="primary" id="text-0"></path></svg></g></svg></g></svg></g></svg></g></svg></g><defs></defs></svg><rect width="395.5199999999999" height="83.48582359192348" fill="none" stroke="none" visibility="hidden"></rect></g></svg></g></svg>